<svg width="15" height="15" viewBox="0 0 15 15" fill="none" xmlns="http://www.w3.org/2000/svg">
<g clip-path="url(#clip0_1_160)">
<path d="M10.0307 7.91305C9.35578 6.94613 8.20622 6.36877 6.95561 6.36877C5.70511 6.36877 4.55544 6.94613 3.88058 7.91305L2.25415 10.243C1.98429 10.6296 1.85978 11.0761 1.894 11.5342C1.92822 11.9924 2.11808 12.4191 2.44297 12.7683C2.7681 13.1174 3.19771 13.3559 3.68534 13.4583C4.17298 13.5605 4.67285 13.5169 5.13085 13.3321L5.16072 13.3199C6.31325 12.8637 7.63058 12.8678 8.78025 13.3321C9.07677 13.4518 9.39091 13.5123 9.70791 13.5123C9.88026 13.5123 10.0536 13.4943 10.2254 13.4584C10.713 13.3561 11.1427 13.1176 11.4679 12.7685C11.7929 12.4194 11.9829 11.9926 12.0172 11.5344C12.0515 11.0761 11.927 10.6296 11.6572 10.2429L10.0307 7.91305ZM10.7997 12.2437C10.386 12.6878 9.71672 12.8282 9.13422 12.593C8.44185 12.3133 7.69867 12.1736 6.95526 12.1736C6.21254 12.1736 5.46948 12.3132 4.77757 12.5926L4.75788 12.6005C4.17984 12.825 3.52043 12.6828 3.11131 12.2437C2.69806 11.7994 2.65103 11.1706 2.99435 10.6787L4.6209 8.34875C5.13336 7.6146 6.00609 7.17628 6.95561 7.17628C7.90512 7.17628 8.77796 7.6146 9.29054 8.34875L10.9169 10.6786C11.2603 11.1707 11.2132 11.7997 10.7997 12.2437Z" fill="white"/>
<path d="M2.69223 7.9099C3.17608 7.73924 3.54367 7.3812 3.72735 6.90168C3.90198 6.44539 3.88768 5.93024 3.68683 5.45103C3.48588 4.97214 3.12035 4.58121 2.65767 4.35012C2.17141 4.10747 1.63731 4.06796 1.15426 4.23894C0.182423 4.58205 -0.263553 5.68486 0.160222 6.69781C0.498738 7.50405 1.28827 8.013 2.08649 8.013C2.29031 8.013 2.4947 7.97979 2.69223 7.9099ZM0.980763 6.40776C0.731053 5.81086 0.950436 5.17591 1.47011 4.99243C1.56395 4.95922 1.66317 4.94272 1.76445 4.94272C1.92078 4.94272 2.08226 4.98192 2.23767 5.05958C2.51713 5.19903 2.74041 5.44116 2.86629 5.74118C2.99206 6.04142 3.00328 6.35837 2.89776 6.63381C2.80106 6.88623 2.61601 7.07182 2.37683 7.15621L2.37637 7.15642C1.85738 7.34011 1.23127 7.00414 0.980763 6.40776Z" fill="white"/>
<path d="M5.84804 6.08452C7.06294 6.08452 8.05137 5.05045 8.05137 3.7794C8.05137 2.50804 7.06294 1.47375 5.84804 1.47375C4.63325 1.47375 3.64494 2.50804 3.64494 3.7794C3.64494 5.05045 4.63325 6.08452 5.84804 6.08452ZM5.84804 2.28115C6.57806 2.28115 7.17212 2.9533 7.17212 3.7794C7.17212 4.60519 6.57806 5.27713 5.84804 5.27713C5.11802 5.27713 4.52419 4.60519 4.52419 3.7794C4.52419 2.9533 5.11802 2.28115 5.84804 2.28115Z" fill="white"/>
<path d="M9.65321 6.65092H9.65333C9.84021 6.70787 10.0309 6.73509 10.2207 6.73509C11.1067 6.73509 11.9702 6.14292 12.2997 5.23285C12.4894 4.70898 12.4769 4.15506 12.2645 3.67323C12.0423 3.1689 11.6304 2.80277 11.1047 2.6422C10.5789 2.48183 10.01 2.54867 9.50318 2.83052C9.01898 3.09986 8.64797 3.53661 8.45857 4.06048C8.0586 5.16559 8.59452 6.32766 9.65321 6.65092ZM9.29295 4.31511C9.41667 3.97304 9.6531 3.6912 9.95877 3.52116C10.2416 3.36384 10.5501 3.3238 10.8274 3.4084C11.1046 3.4931 11.3254 3.69466 11.4495 3.97609C11.5835 4.28022 11.5892 4.63605 11.4653 4.97811C11.2182 5.66077 10.5297 6.06746 9.93062 5.88471C9.33198 5.70186 9.04588 4.99776 9.29295 4.31511Z" fill="white"/>
<path d="M14.2932 6.38181L14.2929 6.3815C13.455 5.81318 12.202 6.05951 11.4995 6.9309C10.7976 7.80272 10.9074 8.97477 11.7439 9.54351C12.049 9.75106 12.4095 9.85026 12.7785 9.85026C13.4215 9.85026 14.0905 9.54887 14.5377 8.99463C15.2395 8.12282 15.1299 6.95076 14.2932 6.38181ZM13.831 8.51427C13.4161 9.02847 12.7147 9.19903 12.2671 8.89459C11.8199 8.59056 11.7927 7.92493 12.2064 7.41105C12.4814 7.06993 12.8831 6.88014 13.2533 6.88014C13.4405 6.88014 13.6197 6.92869 13.7703 7.03094C14.2172 7.33528 14.2443 8.0007 13.831 8.51427Z" fill="white"/>
</g>
<defs>
<clipPath id="clip0_1_160">
<rect width="15" height="13.7742" fill="white" transform="translate(0 0.612915)"/>
</clipPath>
</defs>
</svg>
